<svg xmlns="http://www.w3.org/2000/svg" viewBox="0 0 187.79 159.01"><defs><style>.cls-1{fill:#024f99;}.cls-2{fill:#1174bb;}.cls-2,.cls-3{fill-rule:evenodd;}.cls-3,.cls-4{fill:#d61116;}</style></defs><g id="Layer_2" data-name="Layer 2"><g id="Layer_1-2" data-name="Layer 1"><path class="cls-1" d="M103,127.86A53.89,53.89,0,0,0,130.31,97H155.1a48.84,48.84,0,0,1-45.57,31.31,49.89,49.89,0,0,1-6.57-.44M79.48,0A79.5,79.5,0,0,1,157,62H130.31A53.76,53.76,0,0,0,27.89,64.4c-3.33,11.39-3.08,24.35-.28,35.61A84.64,84.64,0,0,0,81,159H79.48a79.49,79.49,0,0,1,0-159Z"/><path class="cls-2" d="M86.05,31.14A53.75,53.75,0,1,0,160.36,97h26.72A79.5,79.5,0,0,1,30.71,89.83C29.36,79.16,30,73.36,33.3,63.72A48.84,48.84,0,0,1,86.06,31.14M109.54,0a79.53,79.53,0,0,1,77.55,62h-25l-.25-1.09A84.45,84.45,0,0,0,108,0Z"/><path class="cls-3" d="M78.45,76.32a2.79,2.79,0,0,0-2.27,1,4.47,4.47,0,0,0-.84,2.85,4.18,4.18,0,0,0,.85,2.74,2.83,2.83,0,0,0,2.26,1,2.67,2.67,0,0,0,2.21-1,4.44,4.44,0,0,0,.78-2.8,4.54,4.54,0,0,0-.78-2.84,2.65,2.65,0,0,0-2.21-1m43.11.26h-1.69V74.81h1.69V72.37l1.93-.64v3.09h2.58v1.75h-2.51v5.57a2.35,2.35,0,0,0,.29,1.35,1.22,1.22,0,0,0,1,.37,1.42,1.42,0,0,0,.91-.3l.3-.23v1.89l-.09,0a3.23,3.23,0,0,1-1.56.34c-2,0-2.78-1.25-2.78-3.19Zm-3.34,8.82h-1.93V69.92h1.93Zm-6.72-1.21a3.34,3.34,0,0,1-2.9,1.45c-2.75,0-3.72-1.93-3.72-4.5v-6.3h1.93v6c0,1.6.43,3,2.21,3a2.18,2.18,0,0,0,1.76-.81,3.38,3.38,0,0,0,.7-2.19V74.84h1.93V85.43h-1.93Zm-15.32.74V82.68l.3.23a4.37,4.37,0,0,0,2.73,1c.85,0,1.88-.16,1.88-1.25a1,1,0,0,0-.15-.59,1.51,1.51,0,0,0-.42-.45,3.48,3.48,0,0,0-.68-.38L99,80.84a10.23,10.23,0,0,1-1.16-.55,3.71,3.71,0,0,1-.88-.65,2.75,2.75,0,0,1-.54-.84,3.23,3.23,0,0,1-.18-1.11,2.72,2.72,0,0,1,.34-1.36,3.28,3.28,0,0,1,.9-1,4.19,4.19,0,0,1,1.29-.59,5.44,5.44,0,0,1,1.44-.2,5.79,5.79,0,0,1,2.36.47l.12,0v2.14l-.29-.19a4.15,4.15,0,0,0-2.39-.7,2.66,2.66,0,0,0-.75.09,1.76,1.76,0,0,0-.55.27,1.09,1.09,0,0,0-.34.4,1,1,0,0,0-.12.49,1.17,1.17,0,0,0,.12.58,1.29,1.29,0,0,0,.36.41,2.51,2.51,0,0,0,.64.36l.87.36c.4.17.8.35,1.19.55a4.27,4.27,0,0,1,.93.64,2.84,2.84,0,0,1,.6.86,2.8,2.8,0,0,1,.21,1.15,2.68,2.68,0,0,1-.34,1.41,3,3,0,0,1-.92,1,3.92,3.92,0,0,1-1.29.57,6,6,0,0,1-1.52.19A5.59,5.59,0,0,1,96.34,85Zm-8.63-8.82a3.63,3.63,0,0,1,3.09-1.56,3.15,3.15,0,0,1,2.62,1.15,5.11,5.11,0,0,1,.9,3.22v6.43H92.23v-6c0-1.54-.37-3.07-2.11-3.07a2.26,2.26,0,0,0-1.82.86,3.33,3.33,0,0,0-.73,2.21v6H85.64V74.81h1.93Zm-9.2,9.51a4.68,4.68,0,0,1-3.62-1.49,5.64,5.64,0,0,1-1.36-3.93,5.93,5.93,0,0,1,1.41-4.15,5,5,0,0,1,3.8-1.5A4.52,4.52,0,0,1,82.16,76a5.92,5.92,0,0,1,1.29,4,5.86,5.86,0,0,1-1.38,4,4.8,4.8,0,0,1-3.72,1.55Zm-6.47-.9a6.4,6.4,0,0,1-3.44.9,5.6,5.6,0,0,1-4.35-1.82,6.71,6.71,0,0,1-1.6-4.67A7.42,7.42,0,0,1,64.28,74,6.14,6.14,0,0,1,69,72a6.42,6.42,0,0,1,2.92.64l.13.06v2.65l-.36-.26A4.57,4.57,0,0,0,69,74.17a3.64,3.64,0,0,0-2.89,1.3A5.2,5.2,0,0,0,64.87,79a5,5,0,0,0,1.07,3.34,3.57,3.57,0,0,0,2.89,1.2,4.51,4.51,0,0,0,2.85-1l.37-.28v2.52Z"/><path class="cls-3" d="M178.22,78.9A3.09,3.09,0,0,0,177.6,77a2,2,0,0,0-1.64-.71,2.32,2.32,0,0,0-1.75.76,3.6,3.6,0,0,0-.87,1.82ZM150,78.9a3.15,3.15,0,0,0-.61-1.87,2,2,0,0,0-1.64-.71,2.31,2.31,0,0,0-1.75.76,3.44,3.44,0,0,0-.87,1.82Zm34.17-2.73a3.4,3.4,0,0,1,.74-.91,2.49,2.49,0,0,1,1.68-.65,2.78,2.78,0,0,1,1,.16l.13,0v2.26l-.33-.26a1.71,1.71,0,0,0-1.07-.28,1.82,1.82,0,0,0-1.53.89,4.56,4.56,0,0,0-.64,2.57v5.41h-2V74.79h2Zm-10.94,4.54A3.7,3.7,0,0,0,174.1,83a2.8,2.8,0,0,0,2.17.87,4.59,4.59,0,0,0,2.94-1.1l.33-.28v2.07l-.08.06a5.77,5.77,0,0,1-3.56,1,4.32,4.32,0,0,1-3.44-1.46,6.09,6.09,0,0,1-1.25-4.05,6,6,0,0,1,1.36-4,4.34,4.34,0,0,1,3.4-1.57,3.88,3.88,0,0,1,3.15,1.37,5.8,5.8,0,0,1,1.11,3.73v1.07Zm-7.54-4.14H164v-1.8h1.7V72.33l2-.64v3.1h2.49v1.78h-2.49v5.56a2.41,2.41,0,0,0,.3,1.34,1.15,1.15,0,0,0,1,.36,1.41,1.41,0,0,0,.9-.29l.33-.27V85.2l-.1.07a3.31,3.31,0,0,1-1.58.34c-2,0-2.8-1.29-2.8-3.22ZM156,76.05a3.63,3.63,0,0,1,3.07-1.52,3.23,3.23,0,0,1,2.64,1.16,5.23,5.23,0,0,1,.9,3.21v6.44h-2v-6c0-1.47-.33-3-2.09-3a2.24,2.24,0,0,0-1.8.85,3.3,3.3,0,0,0-.73,2.2v6h-2V74.79h2ZM145.1,80.69a3.65,3.65,0,0,0,.83,2.29,2.75,2.75,0,0,0,2.18.87,4.48,4.48,0,0,0,2.93-1.1l.33-.27v2.07l-.08.06a5.84,5.84,0,0,1-3.56,1,4.33,4.33,0,0,1-3.44-1.46,6.15,6.15,0,0,1-1.24-4,5.94,5.94,0,0,1,1.35-4,4.35,4.35,0,0,1,3.41-1.57A3.86,3.86,0,0,1,151,75.9a5.86,5.86,0,0,1,1.11,3.73v1.06Zm-3.46,4.07a6.44,6.44,0,0,1-3.45.91,5.67,5.67,0,0,1-4.38-1.83,6.73,6.73,0,0,1-1.66-4.71A7.42,7.42,0,0,1,133.94,74a6.16,6.16,0,0,1,4.75-2,6.58,6.58,0,0,1,2.93.63l.14.08v2.69l-.4-.28a4.54,4.54,0,0,0-2.75-.93,3.58,3.58,0,0,0-2.86,1.29A5.14,5.14,0,0,0,134.62,79a5,5,0,0,0,1.06,3.33,3.54,3.54,0,0,0,2.82,1.19,4.52,4.52,0,0,0,2.83-1l.4-.32v2.56Z"/><path class="cls-4" d="M171.46,147.41h-5.63a.89.89,0,0,0,0,1.76h1.95v8.91a.85.85,0,0,0,.85.85v0h0a.85.85,0,0,0,.83-.85v-9h2a.89.89,0,0,0,0-1.76Z"/><polygon class="cls-4" points="178.67 158.94 178.67 158.94 178.66 158.94 178.67 158.94"/><path class="cls-4" d="M182.36,147.33a1.34,1.34,0,0,0-1.24,1l-2.42,7.38-2.49-7.38a1.26,1.26,0,0,0-2.5.35v9.46a.84.84,0,0,0,.85.82h.05a.82.82,0,0,0,.8-.85v-7.14l2.42,7.33a.89.89,0,0,0,.84.67c.37,0,.64-.22.84-.67l1-3c.47-1.42,1.05-3.18,1.42-4.32v7.13a.85.85,0,0,0,.86.83h0a.84.84,0,0,0,.82-.85v-9.43A1.33,1.33,0,0,0,182.36,147.33Z"/></g></g></svg>